<svg xmlns="http://www.w3.org/2000/svg" width="640" height="360" font-family="system-ui, -apple-system, BlinkMacSystemFont, Noto Sans JP, sans-serif" viewBox="0 0 640 360" role="img" aria-label="コンサル支援資料">
  <defs>
    <filter id="shadow" x="-20%" y="-20%" width="140%" height="145%"><feDropShadow dx="0" dy="18" stdDeviation="15" flood-color="#102033" flood-opacity=".18"/></filter>
    <linearGradient id="bg" x1="0" y1="0" x2="1" y2="1"><stop stop-color="#f8fbff"/><stop offset=".55" stop-color="#ecfdf5"/><stop offset="1" stop-color="#fff7ed"/></linearGradient>
  </defs>
  <rect width="640" height="360" rx="24" fill="url(#bg)"/>
  <rect x="16" y="20" width="608" height="296" rx="20" fill="#fff" filter="url(#shadow)"/>
  <rect x="16" y="20" width="608" height="296" rx="20" fill="#fff" stroke="#d8e1ee"/>
  <rect x="16" y="20" width="608" height="44" rx="20" fill="#10233f"/><rect x="16" y="46" width="608" height="18" fill="#10233f"/>
  <text x="42" y="47" font-size="14" font-weight="900" fill="#fff">コンサル支援資料</text>
  <rect x="464" y="32" width="104" height="20" rx="10" fill="#0f9f91"/><text x="516" y="46" text-anchor="middle" font-size="10" font-weight="800" fill="#fff">提案書を書き出し</text>
  <rect x="32" y="82" width="150" height="176" rx="14" fill="#fff" stroke="#d8e1ee"/>
  <text x="54" y="108" font-size="11" font-weight="900" fill="#10233f">提案書パーツ</text>
  <rect x="54" y="128" width="96" height="24" rx="8" fill="#eaf2ff"/><rect x="54" y="164" width="96" height="24" rx="8" fill="#ecfdf5"/><rect x="54" y="200" width="96" height="24" rx="8" fill="#fff7ed"/>
  <circle cx="152" cy="140" r="5" fill="#1f78ff"/><circle cx="152" cy="176" r="5" fill="#0f9f91"/><circle cx="152" cy="212" r="5" fill="#f59e0b"/>
  <rect x="202" y="82" width="190" height="176" rx="14" fill="#fff" stroke="#d8e1ee"/>
  <rect x="224" y="104" width="92" height="12" rx="6" fill="#10233f"/><rect x="224" y="128" width="126" height="7" rx="3.5" fill="#cbd5e1"/><rect x="224" y="146" width="98" height="7" rx="3.5" fill="#cbd5e1"/>
  <path d="M224 220c18-34 34-52 52-38 18 14 32 10 44-24 12-34 28-42 48-18" fill="none" stroke="#0f9f91" stroke-width="7" stroke-linecap="round" stroke-linejoin="round"/>
  <rect x="224" y="238" width="44" height="10" rx="5" fill="#ecfdf5"/><rect x="278" y="238" width="44" height="10" rx="5" fill="#eaf2ff"/><rect x="332" y="238" width="32" height="10" rx="5" fill="#fff7ed"/>
  <rect x="414" y="82" width="186" height="176" rx="14" fill="#fff" stroke="#d8e1ee"/>
  <text x="436" y="108" font-size="11" font-weight="900" fill="#10233f">実行計画</text>
  <rect x="436" y="126" width="124" height="24" rx="8" fill="#f4f7fb" stroke="#d8e1ee"/><rect x="436" y="162" width="124" height="24" rx="8" fill="#f4f7fb" stroke="#d8e1ee"/><rect x="436" y="198" width="124" height="24" rx="8" fill="#f4f7fb" stroke="#d8e1ee"/>
  <rect x="450" y="134" width="48" height="7" rx="3.5" fill="#10233f" opacity=".72"/><rect x="450" y="170" width="62" height="7" rx="3.5" fill="#10233f" opacity=".72"/><rect x="450" y="206" width="42" height="7" rx="3.5" fill="#10233f" opacity=".72"/>
  <rect x="526" y="132" width="22" height="10" rx="5" fill="#0f9f91"/><rect x="526" y="168" width="22" height="10" rx="5" fill="#1f78ff"/><rect x="526" y="204" width="22" height="10" rx="5" fill="#f59e0b"/>
  <g transform="translate(28 280)"><rect width="116" height="36" rx="18" fill="#0f9f91"/><text x="58" y="24" text-anchor="middle" font-size="15" font-weight="900" fill="#fff">KIT</text></g>
  <text x="164" y="304" font-size="22" font-weight="900" fill="#122033">コンサル支援資料</text>
</svg>
