<svg xmlns="http://www.w3.org/2000/svg" width="640" height="360" font-family="system-ui, -apple-system, BlinkMacSystemFont, Noto Sans JP, sans-serif" viewBox="0 0 640 360" role="img" aria-label="だこくん">
  <defs>
    <filter id="shadow" x="-20%" y="-20%" width="140%" height="145%"><feDropShadow dx="0" dy="18" stdDeviation="15" flood-color="#102033" flood-opacity=".18"/></filter>
    <linearGradient id="bg" x1="0" y1="0" x2="1" y2="1"><stop stop-color="#f8fbff"/><stop offset=".55" stop-color="#ecfeff"/><stop offset="1" stop-color="#f7fbff"/></linearGradient>
  </defs>
  <rect width="640" height="360" rx="24" fill="url(#bg)"/>
  <rect x="16" y="20" width="608" height="296" rx="20" fill="#fff" filter="url(#shadow)"/>
  <rect x="16" y="20" width="608" height="296" rx="20" fill="#fff" stroke="#d8e1ee"/>
  <rect x="16" y="20" width="608" height="44" rx="20" fill="#10233f"/><rect x="16" y="46" width="608" height="18" fill="#10233f"/>
  <text x="42" y="47" font-size="14" font-weight="900" fill="#fff">だこくん 勤怠</text>
  <rect x="474" y="32" width="92" height="20" rx="10" fill="#00a7b5"/><text x="520" y="46" text-anchor="middle" font-size="10" font-weight="800" fill="#fff">月次締め</text>
  <rect x="32" y="82" width="116" height="176" rx="14" fill="#f4f7fb" stroke="#dde6f0"/>
  <text x="52" y="108" font-size="11" font-weight="900" fill="#10233f">スタッフ</text>
  <rect x="50" y="126" width="80" height="22" rx="8" fill="#fff" stroke="#d8e1ee"/><circle cx="64" cy="137" r="6" fill="#38bdf8"/><rect x="76" y="133" width="34" height="7" rx="3.5" fill="#8aa0b8"/>
  <rect x="50" y="158" width="80" height="22" rx="8" fill="#fff" stroke="#d8e1ee"/><circle cx="64" cy="169" r="6" fill="#22c55e"/><rect x="76" y="165" width="42" height="7" rx="3.5" fill="#8aa0b8"/>
  <rect x="50" y="190" width="80" height="22" rx="8" fill="#fff" stroke="#d8e1ee"/><circle cx="64" cy="201" r="6" fill="#f59e0b"/><rect x="76" y="197" width="30" height="7" rx="3.5" fill="#8aa0b8"/>
  <rect x="172" y="82" width="280" height="176" rx="14" fill="#fff" stroke="#d8e1ee"/>
  <rect x="196" y="104" width="92" height="12" rx="6" fill="#10233f"/><text x="372" y="116" font-size="12" font-weight="900" fill="#00a7b5">09:41</text>
  <rect x="196" y="134" width="92" height="44" rx="10" fill="#16a34a"/><text x="242" y="160" text-anchor="middle" font-size="13" font-weight="900" fill="#fff">出勤</text>
  <rect x="306" y="134" width="92" height="44" rx="10" fill="#f97316"/><text x="352" y="160" text-anchor="middle" font-size="13" font-weight="900" fill="#fff">退勤</text>
  <rect x="196" y="196" width="202" height="34" rx="9" fill="#f8fafc" stroke="#d8e1ee"/>
  <path d="M214 213h48M286 213h34M344 213h32" stroke="#8aa0b8" stroke-width="6" stroke-linecap="round"/>
  <rect x="472" y="82" width="128" height="176" rx="14" fill="#fff" stroke="#d8e1ee"/>
  <text x="494" y="108" font-size="11" font-weight="900" fill="#10233f">今日の状況</text>
  <rect x="494" y="128" width="80" height="17" rx="8.5" fill="#dcfce7"/><rect x="494" y="156" width="80" height="17" rx="8.5" fill="#dcfce7"/><rect x="494" y="184" width="80" height="17" rx="8.5" fill="#fee2e2"/><rect x="494" y="212" width="80" height="17" rx="8.5" fill="#eaf2ff"/>
  <circle cx="584" cy="136" r="4" fill="#22c55e"/><circle cx="584" cy="164" r="4" fill="#22c55e"/><circle cx="584" cy="192" r="4" fill="#ef4444"/><circle cx="584" cy="220" r="4" fill="#1f78ff"/>
  <g transform="translate(28 280)"><rect width="116" height="36" rx="18" fill="#00a7b5"/><text x="58" y="24" text-anchor="middle" font-size="15" font-weight="900" fill="#fff">TIME</text></g>
  <text x="164" y="304" font-size="22" font-weight="900" fill="#122033">だこくん</text>
</svg>
