<svg xmlns="http://www.w3.org/2000/svg" width="640" height="360" font-family="system-ui, -apple-system, BlinkMacSystemFont, Noto Sans JP, sans-serif" viewBox="0 0 640 360" role="img" aria-label="PDF編集ツール">
  <defs>
    <filter id="shadow" x="-20%" y="-20%" width="140%" height="145%"><feDropShadow dx="0" dy="18" stdDeviation="15" flood-color="#102033" flood-opacity=".18"/></filter>
    <linearGradient id="bg" x1="0" y1="0" x2="1" y2="1"><stop stop-color="#f8fbff"/><stop offset=".55" stop-color="#edf7ff"/><stop offset="1" stop-color="#f5f7ff"/></linearGradient>
  </defs>
  <rect width="640" height="360" rx="24" fill="url(#bg)"/>
  <rect x="16" y="20" width="608" height="296" rx="20" fill="#fff" filter="url(#shadow)"/>
  <rect x="16" y="20" width="608" height="296" rx="20" fill="#fff" stroke="#d8e1ee"/>
  <rect x="16" y="20" width="608" height="44" rx="20" fill="#10233f"/>
  <rect x="16" y="46" width="608" height="18" fill="#10233f"/>
  <circle cx="42" cy="42" r="6" fill="#ef4444"/><circle cx="62" cy="42" r="6" fill="#f59e0b"/><circle cx="82" cy="42" r="6" fill="#22c55e"/>
  <text x="116" y="47" font-size="14" font-weight="800" fill="#fff">PDF編集ツール</text>
  <rect x="472" y="32" width="86" height="20" rx="10" fill="#1f78ff"/><text x="515" y="46" text-anchor="middle" font-size="10" font-weight="800" fill="#fff">結合して保存</text>
  <rect x="32" y="82" width="104" height="176" rx="14" fill="#f4f7fb" stroke="#dde6f0"/>
  <rect x="48" y="100" width="72" height="46" rx="5" fill="#fff" stroke="#cfd9e6"/><rect x="57" y="112" width="38" height="6" rx="3" fill="#d83f45"/><rect x="57" y="126" width="50" height="4" rx="2" fill="#b8c5d4"/><rect x="57" y="137" width="42" height="4" rx="2" fill="#d7dfea"/>
  <rect x="48" y="156" width="72" height="46" rx="5" fill="#fff" stroke="#cfd9e6"/><rect x="57" y="168" width="46" height="5" rx="2.5" fill="#10233f"/><rect x="57" y="181" width="50" height="4" rx="2" fill="#b8c5d4"/><rect x="57" y="192" width="34" height="4" rx="2" fill="#d7dfea"/>
  <rect x="48" y="214" width="72" height="26" rx="5" fill="#eaf2ff" stroke="#bfd5f6"/><path d="M60 227h48" stroke="#1f78ff" stroke-width="4" stroke-linecap="round"/>
  <rect x="154" y="82" width="286" height="176" rx="14" fill="#fff" stroke="#d8e1ee"/>
  <rect x="178" y="104" width="150" height="12" rx="6" fill="#10233f"/><rect x="342" y="102" width="64" height="18" rx="9" fill="#fee2e2"/><text x="374" y="115" text-anchor="middle" font-size="10" font-weight="900" fill="#d83f45">PDF</text>
  <rect x="178" y="134" width="222" height="78" rx="10" fill="#f8fafc" stroke="#cfd9e6" stroke-dasharray="7 6"/>
  <path d="M246 164h88M246 182h88M246 200h54" stroke="#b8c5d4" stroke-width="5" stroke-linecap="round"/>
  <rect x="194" y="154" width="34" height="44" rx="5" fill="#fff" stroke="#d83f45"/><path d="M203 169h17M203 181h17M203 193h12" stroke="#d83f45" stroke-width="3" stroke-linecap="round"/>
  <rect x="178" y="226" width="72" height="18" rx="6" fill="#eaf2ff"/><rect x="260" y="226" width="72" height="18" rx="6" fill="#ecfdf5"/><rect x="342" y="226" width="64" height="18" rx="6" fill="#fff7ed"/>
  <rect x="458" y="82" width="142" height="176" rx="14" fill="#fff" stroke="#d8e1ee"/>
  <text x="480" y="112" font-size="11" font-weight="900" fill="#10233f">変換キュー</text>
  <rect x="480" y="128" width="96" height="18" rx="9" fill="#f4f7fb"/><rect x="480" y="158" width="96" height="18" rx="9" fill="#ecfdf5"/><rect x="480" y="188" width="96" height="18" rx="9" fill="#fef2f2"/><rect x="480" y="218" width="62" height="18" rx="9" fill="#eaf2ff"/>
  <circle cx="570" cy="137" r="4" fill="#94a3b8"/><circle cx="570" cy="167" r="4" fill="#22c55e"/><circle cx="570" cy="197" r="4" fill="#ef4444"/><circle cx="536" cy="227" r="4" fill="#1f78ff"/>
  <g transform="translate(28 280)"><rect width="116" height="36" rx="18" fill="#d83f45"/><text x="58" y="24" text-anchor="middle" font-size="15" font-weight="900" fill="#fff">PDF</text></g>
  <text x="164" y="304" font-size="22" font-weight="900" fill="#122033">PDF編集ツール</text>
</svg>
