<svg xmlns="http://www.w3.org/2000/svg" width="640" height="360" font-family="system-ui, -apple-system, BlinkMacSystemFont, Noto Sans JP, sans-serif" viewBox="0 0 640 360" role="img" aria-label="小テスト作成">
  <defs>
    <filter id="shadow" x="-20%" y="-20%" width="140%" height="145%"><feDropShadow dx="0" dy="18" stdDeviation="15" flood-color="#102033" flood-opacity=".18"/></filter>
    <linearGradient id="bg" x1="0" y1="0" x2="1" y2="1"><stop stop-color="#f8fbff"/><stop offset=".55" stop-color="#ecfdf5"/><stop offset="1" stop-color="#eef6ff"/></linearGradient>
  </defs>
  <rect width="640" height="360" rx="24" fill="url(#bg)"/>
  <rect x="16" y="20" width="608" height="296" rx="20" fill="#fff" filter="url(#shadow)"/>
  <rect x="16" y="20" width="608" height="296" rx="20" fill="#fff" stroke="#d8e1ee"/>
  <rect x="16" y="20" width="608" height="44" rx="20" fill="#10233f"/><rect x="16" y="46" width="608" height="18" fill="#10233f"/>
  <text x="42" y="47" font-size="14" font-weight="900" fill="#fff">小テスト作成</text>
  <rect x="470" y="32" width="98" height="20" rx="10" fill="#0f9f91"/><text x="519" y="46" text-anchor="middle" font-size="10" font-weight="800" fill="#fff">配布リンク発行</text>
  <rect x="32" y="82" width="118" height="176" rx="14" fill="#f4f7fb" stroke="#dde6f0"/>
  <text x="52" y="108" font-size="11" font-weight="900" fill="#10233f">設問タイプ</text>
  <rect x="50" y="126" width="82" height="20" rx="7" fill="#fff" stroke="#d8e1ee"/><circle cx="63" cy="136" r="4" fill="#1f78ff"/><rect x="74" y="132" width="40" height="7" rx="3.5" fill="#8aa0b8"/>
  <rect x="50" y="154" width="82" height="20" rx="7" fill="#fff" stroke="#d8e1ee"/><circle cx="63" cy="164" r="4" fill="#0f9f91"/><rect x="74" y="160" width="48" height="7" rx="3.5" fill="#8aa0b8"/>
  <rect x="50" y="182" width="82" height="20" rx="7" fill="#fff" stroke="#d8e1ee"/><circle cx="63" cy="192" r="4" fill="#f59e0b"/><rect x="74" y="188" width="34" height="7" rx="3.5" fill="#8aa0b8"/>
  <rect x="50" y="222" width="82" height="20" rx="7" fill="#0f9f91"/><text x="91" y="236" text-anchor="middle" font-size="10" font-weight="900" fill="#fff">AIで生成</text>
  <rect x="170" y="82" width="290" height="176" rx="14" fill="#fff" stroke="#d8e1ee"/>
  <rect x="194" y="104" width="154" height="12" rx="6" fill="#10233f"/><rect x="366" y="101" width="58" height="18" rx="9" fill="#dcfce7"/><text x="395" y="114" text-anchor="middle" font-size="10" font-weight="900" fill="#087f5b">自動採点</text>
  <rect x="194" y="134" width="230" height="32" rx="8" fill="#f8fafc" stroke="#d8e1ee"/><circle cx="214" cy="150" r="7" fill="#1f78ff"/><rect x="232" y="144" width="116" height="8" rx="4" fill="#10233f" opacity=".78"/><rect x="360" y="142" width="44" height="16" rx="8" fill="#eaf2ff"/>
  <rect x="194" y="178" width="230" height="32" rx="8" fill="#f8fafc" stroke="#d8e1ee"/><circle cx="214" cy="194" r="7" fill="#0f9f91"/><rect x="232" y="188" width="132" height="8" rx="4" fill="#10233f" opacity=".78"/><rect x="376" y="186" width="28" height="16" rx="8" fill="#dcfce7"/>
  <rect x="194" y="222" width="230" height="18" rx="7" fill="#fff7ed"/><rect x="210" y="228" width="64" height="6" rx="3" fill="#f59e0b"/><rect x="294" y="228" width="42" height="6" rx="3" fill="#f59e0b"/><rect x="356" y="228" width="34" height="6" rx="3" fill="#f59e0b"/>
  <rect x="480" y="82" width="120" height="176" rx="14" fill="#fff" stroke="#d8e1ee"/>
  <text x="502" y="108" font-size="11" font-weight="900" fill="#10233f">結果</text>
  <path d="M506 222V126M506 222h72" stroke="#d8e1ee" stroke-width="2" stroke-linecap="round"/>
  <rect x="518" y="178" width="10" height="44" rx="5" fill="#1f78ff"/><rect x="538" y="150" width="10" height="72" rx="5" fill="#0f9f91"/><rect x="558" y="190" width="10" height="32" rx="5" fill="#f59e0b"/>
  <rect x="502" y="232" width="62" height="14" rx="7" fill="#ecfdf5"/>
  <g transform="translate(28 280)"><rect width="116" height="36" rx="18" fill="#0f9f91"/><text x="58" y="24" text-anchor="middle" font-size="15" font-weight="900" fill="#fff">QUIZ</text></g>
  <text x="164" y="304" font-size="22" font-weight="900" fill="#122033">小テスト作成</text>
</svg>
