<svg xmlns="http://www.w3.org/2000/svg" width="640" height="360" font-family="system-ui, -apple-system, BlinkMacSystemFont, Noto Sans JP, sans-serif" viewBox="0 0 640 360" role="img" aria-label="座席管理アプリ">
  <defs>
    <filter id="shadow" x="-20%" y="-20%" width="140%" height="145%"><feDropShadow dx="0" dy="18" stdDeviation="15" flood-color="#102033" flood-opacity=".18"/></filter>
    <linearGradient id="bg" x1="0" y1="0" x2="1" y2="1"><stop stop-color="#f8fbff"/><stop offset=".6" stop-color="#edf7ff"/><stop offset="1" stop-color="#ecfdf5"/></linearGradient>
    <pattern id="grid" width="18" height="18" patternUnits="userSpaceOnUse"><path d="M18 0H0v18" fill="none" stroke="#dbe6f2" stroke-width="1"/></pattern>
  </defs>
  <rect width="640" height="360" rx="24" fill="url(#bg)"/>
  <rect x="16" y="20" width="608" height="296" rx="20" fill="#fff" filter="url(#shadow)"/>
  <rect x="16" y="20" width="608" height="296" rx="20" fill="#fff" stroke="#d8e1ee"/>
  <rect x="16" y="20" width="608" height="44" rx="20" fill="#10233f"/><rect x="16" y="46" width="608" height="18" fill="#10233f"/>
  <text x="42" y="47" font-size="14" font-weight="900" fill="#fff">SeatFlow</text>
  <rect x="488" y="32" width="86" height="20" rx="10" fill="#0f9f91"/><text x="531" y="46" text-anchor="middle" font-size="10" font-weight="800" fill="#fff">自動配置</text>
  <rect x="32" y="82" width="104" height="176" rx="14" fill="#f4f7fb" stroke="#dde6f0"/>
  <text x="52" y="108" font-size="11" font-weight="900" fill="#10233f">条件</text>
  <rect x="50" y="124" width="68" height="20" rx="7" fill="#fff" stroke="#d8e1ee"/><rect x="50" y="154" width="68" height="20" rx="7" fill="#fff" stroke="#d8e1ee"/><rect x="50" y="184" width="68" height="20" rx="7" fill="#fff" stroke="#d8e1ee"/>
  <rect x="50" y="222" width="68" height="20" rx="7" fill="#eaf2ff"/><circle cx="64" cy="232" r="4" fill="#1f78ff"/><rect x="76" y="228" width="24" height="7" rx="3.5" fill="#8aa0b8"/>
  <rect x="154" y="82" width="300" height="176" rx="14" fill="#fbfdff" stroke="#d8e1ee"/>
  <rect x="170" y="98" width="268" height="144" rx="8" fill="url(#grid)"/>
  <rect x="194" y="114" width="72" height="38" rx="8" fill="#dff8ff" stroke="#35c7d8"/><text x="230" y="137" text-anchor="middle" font-size="11" font-weight="900" fill="#087987">教卓</text>
  <rect x="306" y="116" width="84" height="22" rx="8" fill="#fff7d6" stroke="#f4b942"/><text x="348" y="131" text-anchor="middle" font-size="10" font-weight="800" fill="#9a5d00">欠席席</text>
  <rect x="204" y="168" width="26" height="16" rx="4" fill="#1f78ff"/><rect x="244" y="168" width="26" height="16" rx="4" fill="#f59e0b"/><rect x="284" y="168" width="26" height="16" rx="4" fill="#22c55e"/><rect x="324" y="168" width="26" height="16" rx="4" fill="#ef4444"/><rect x="364" y="168" width="26" height="16" rx="4" fill="#1f78ff"/>
  <rect x="204" y="196" width="26" height="16" rx="4" fill="#22c55e"/><rect x="244" y="196" width="26" height="16" rx="4" fill="#1f78ff"/><rect x="284" y="196" width="26" height="16" rx="4" fill="#f59e0b"/><rect x="324" y="196" width="26" height="16" rx="4" fill="#22c55e"/><rect x="364" y="196" width="26" height="16" rx="4" fill="#ef4444"/>
  <rect x="204" y="224" width="26" height="16" rx="4" fill="#f59e0b"/><rect x="244" y="224" width="26" height="16" rx="4" fill="#22c55e"/><rect x="284" y="224" width="26" height="16" rx="4" fill="#1f78ff"/><rect x="324" y="224" width="26" height="16" rx="4" fill="#ef4444"/><rect x="364" y="224" width="26" height="16" rx="4" fill="#22c55e"/>
  <rect x="474" y="82" width="126" height="176" rx="14" fill="#fff" stroke="#d8e1ee"/>
  <text x="496" y="108" font-size="11" font-weight="900" fill="#10233f">クラス一覧</text>
  <rect x="496" y="126" width="78" height="16" rx="8" fill="#dcfce7"/><rect x="496" y="154" width="78" height="16" rx="8" fill="#eaf2ff"/><rect x="496" y="182" width="78" height="16" rx="8" fill="#fff7ed"/><rect x="496" y="210" width="78" height="16" rx="8" fill="#f4f7fb"/>
  <path d="M496 242h78" stroke="#d8e1ee" stroke-width="1"/><circle cx="510" cy="242" r="5" fill="#1f78ff"/><circle cx="534" cy="242" r="5" fill="#22c55e"/><circle cx="558" cy="242" r="5" fill="#f59e0b"/>
  <g transform="translate(28 280)"><rect width="116" height="36" rx="18" fill="#1f78ff"/><text x="58" y="24" text-anchor="middle" font-size="15" font-weight="900" fill="#fff">SEAT</text></g>
  <text x="164" y="304" font-size="22" font-weight="900" fill="#122033">座席管理アプリ</text>
</svg>
